<svg xmlns="http://www.w3.org/2000/svg" viewBox="0 0 190 78.84"><defs><style>.cls-1{fill:#fff;}</style></defs><title>2</title><g id="Слой_2" data-name="Слой 2"><g id="Layer_1" data-name="Layer 1"><path class="cls-1" d="M13.1,50.88h0l6.57-37.27a6.3,6.3,0,0,0-5.12-7.3L8,43.57A6.32,6.32,0,0,0,13.1,50.88Z"/><path class="cls-1" d="M21.69,43.64l13-35.56A6.31,6.31,0,0,0,30.87,0L17.92,35.56A6.31,6.31,0,0,0,21.69,43.64Z"/><path class="cls-1" d="M47.5,56a6.34,6.34,0,0,0-5,2.46,7.88,7.88,0,1,1-6.22-12.71,7.94,7.94,0,0,1,6.27,3,6.34,6.34,0,0,0,5,2.49h2.69a14.18,14.18,0,0,0-14.73-11.8A14.47,14.47,0,0,0,22.1,52.7,14.2,14.2,0,0,0,36.27,67.8a13.64,13.64,0,0,0,1.57-.09A18.92,18.92,0,0,1,6.31,53.48V25.23A6.31,6.31,0,0,0,0,18.92H0V53.48A25.23,25.23,0,0,0,50.34,56Z"/><path class="cls-1" d="M66.22,51.24H67V44.15h4.73a2.37,2.37,0,0,0,2.37-2.37V41H67v-4h6.31a2.36,2.36,0,0,0,2.36-2.36V33.9H63.07V48.09A3.15,3.15,0,0,0,66.22,51.24Z"/><path class="cls-1" d="M119.05,70.17a3.15,3.15,0,0,0,3.15,3.15H123v-7.1h4.73a2.36,2.36,0,0,0,2.36-2.36v-.79H123V59.13h6.3a2.37,2.37,0,0,0,2.37-2.37V56H119.05Z"/><path class="cls-1" d="M71.2,56H63.07V70.17a3.15,3.15,0,0,0,3.15,3.15H67V68.59h4.34a6.3,6.3,0,0,0,6.3-6.54A6.39,6.39,0,0,0,71.2,56Zm-.64,9.46H67V59.13h3.55a3.16,3.16,0,0,1,0,6.31Z"/><path class="cls-1" d="M95,62.4A6.43,6.43,0,0,0,88.54,56H80.41V70.17a3.16,3.16,0,0,0,3.16,3.15h.79V68.59h3.79L90.52,72a3.13,3.13,0,0,0,2.58,1.35h2.69l-3.92-5.59A6.3,6.3,0,0,0,95,62.4Zm-7.1,3H84.36V59.13H87.9a3.16,3.16,0,1,1,0,6.31Z"/><path class="cls-1" d="M101.7,51.24h.79V46.51h3.79l2.37,3.39a3.15,3.15,0,0,0,2.58,1.34h2.69L110,45.65a6.3,6.3,0,0,0,3.12-5.32,6.43,6.43,0,0,0-6.46-6.43H98.55V48.09A3.15,3.15,0,0,0,101.7,51.24Zm.79-14.19H106a3.16,3.16,0,0,1,0,6.31h-3.55Z"/><path class="cls-1" d="M95.79,42.57a9.47,9.47,0,1,0-9.46,9.07A9.27,9.27,0,0,0,95.79,42.57Zm-15,0a5.53,5.53,0,1,1,5.52,5.91A5.73,5.73,0,0,1,80.81,42.57Z"/><path class="cls-1" d="M106.83,55.58a9.07,9.07,0,1,0,9.46,9.07A9.27,9.27,0,0,0,106.83,55.58Zm0,15a5.93,5.93,0,1,1,5.51-5.91A5.73,5.73,0,0,1,106.83,70.56Z"/><path class="cls-1" d="M135.6,56h-.79V70.17A3.16,3.16,0,0,0,138,73.32h.79V59.13A3.16,3.16,0,0,0,135.6,56Z"/><path class="cls-1" d="M151,33.9h-.79V44a4,4,0,0,1-3.75,4.05,4,4,0,0,1-4.14-3.94v-7.1a3.15,3.15,0,0,0-3.15-3.15h-.79v9.69a8,8,0,0,0,7.66,8,7.88,7.88,0,0,0,8.11-7.88v-6.7A3.15,3.15,0,0,0,151,33.9Z"/><path class="cls-1" d="M161.62,37.05a3.15,3.15,0,0,0-3.16-3.15h-.78V51.24h10.25a2.36,2.36,0,0,0,2.36-2.36v-.79h-8.67Z"/><path class="cls-1" d="M181.16,33.9h-.85l-8.84,17.34h4l1.61-3.15h7.35l.73,1.43A3.14,3.14,0,0,0,188,51.24H190Zm-2.49,11,2.07-4.06,2.06,4.06Z"/><path class="cls-1" d="M134.81,33.9H134l-8.27,8.28-8.28-8.28h-.79V48.09a3.15,3.15,0,0,0,3.15,3.15h.79V42.07l2.62,2.62,2.51,2.51,2.51-2.51,2.61-2.62v6A3.15,3.15,0,0,0,134,51.24h.79Z"/></g></g></svg>