<svg xmlns="http://www.w3.org/2000/svg" viewBox="0 0 200 38.76"><defs><style>.cls-1{fill:#fff;}</style></defs><title>3</title><g id="Слой_2" data-name="Слой 2"><g id="Layer_1" data-name="Layer 1"><polygon class="cls-1" points="109.92 6.78 103.38 6.78 103.38 31.98 120.18 31.98 120.18 27.31 109.92 27.31 109.92 6.78"/><path class="cls-1" d="M166.25,23a6.53,6.53,0,0,1-6.14,4.3h-4.88V11.44h4.88a6.53,6.53,0,0,1,6.14,4.3,10.57,10.57,0,0,1,0,7.27m6.25-8.86A11.19,11.19,0,0,0,162,6.78H148.69V32H162a11.2,11.2,0,0,0,10.52-7.37,15.29,15.29,0,0,0,0-10.46"/><path class="cls-1" d="M130.55,22.65l3.91-10.76,3.91,10.75Zm-.69-15.87L120.69,32h6.46l1.7-4.67h11.22l1.7,4.67h6.46l-9.17-25.2Z"/><path class="cls-1" d="M182.32,22.65l3.91-10.76,3.92,10.75Zm8.51-15.87h-9.19L172.47,32h6.45l1.7-4.67h11.23L193.54,32H200Z"/><path class="cls-1" d="M65.24,33.62A18.42,18.42,0,0,0,68,29.32c.52-1.63.63-2.94-2.32-4.59C65,24.38,64.36,24,64,23.81c-.52-.34-.3-.68,0-1,.12-.12.52-.5.86-.78a1.56,1.56,0,0,1,1.39-.28c.48.06,3,.57,3.11.59A.49.49,0,0,0,70,22l1-2.61a.59.59,0,0,0-.59-.81l-8.85-.32a2.34,2.34,0,0,0-1.89.57c-.71.58-4.15,3-4.23,3.1a.6.6,0,0,0-.14.72c0,.06.83,1.4,1,1.71a1.27,1.27,0,0,1-.12,1.85,8.27,8.27,0,0,1-3.39,2.19c-2.05.73-4.94,1.34-11.2,1.35-7,0-16.64-.88-16.64-.88a.84.84,0,0,0-1,.52l-1.09,2.49C13.9,28.93,8.18,24.43,8.18,19.38c0-6.7,10.08-12.44,24.37-14.83.57.43,1.22.92,1.9,1.45C32,11.44,25.76,25.3,25.73,25.36c-.24.59.09.85.61.86.25,0,4.27,0,5.27,0,2,0,10.26,0,15.75-1.92,5-1.73,12.51-8.38,14.79-11s2.46-4.61,1.73-6.55a9.14,9.14,0,0,0-1.22-2.07c14,2.44,23.85,8.12,23.85,14.74,0,6.2-8.64,11.59-21.27,14.24M37,8.21c1.65,1.79,2.71,3,1.62,5.72s-3.39,6.3-5.6,7.25c-.85.36-1.88.71-2.8,1L36.38,7.59c.24.22.46.43.64.62m10,4.11c1.41-2.18,1.16-4.63-.73-7.29-.12-.17-.28-.39-.46-.62C45,3.25,44.9,3.13,45,3.06l0,0h0a11.11,11.11,0,0,1,2,2c1.17,1.56,2.82,4.64.76,7.78-1.1,1.68-5.72,6.73-8.05,8.16a20.25,20.25,0,0,1-8,2.67c-.34.05-1.84.22-2.36.22-.12,0-.24,0-.25-.09s.12-.17,1.39-.35l.38-.05a23.4,23.4,0,0,0,8.26-2.88c2.28-1.43,6.8-6.48,7.88-8.16m6.86.43c2.87-3.79,2.35-5.84,1.57-7.2-.2-.34-.49-.79-.76-1.17C54.12,3.53,54,3.3,54,3.2a.11.11,0,0,1,.09-.05,11.79,11.79,0,0,1,2,2.4c1.33,2.13.85,4.64-1.49,7.68-1.57,2-7.21,7.15-10.78,8.75a12.34,12.34,0,0,1-2,.7.1.1,0,0,1-.1-.06c0-.07-.07-.18,1.53-.91,3.3-1.5,9-6.85,10.59-9M47.34,0C21.09,0,0,8.57,0,19.38S21.09,38.76,47.34,38.76s47.35-8.57,47.35-19.38S73.6,0,47.34,0"/></g></g></svg>