<svg xmlns="http://www.w3.org/2000/svg" viewBox="0 0 180 70.63"><defs><style>.cls-1{fill:#fff;}</style></defs><title>4</title><g id="Слой_2" data-name="Слой 2"><g id="Layer_1" data-name="Layer 1"><path class="cls-1" d="M0,0V70.63L12.61,58,25.22,70.63,37.84,58,50.45,70.63V0ZM40.36,20.18H20.18V35.31H40.36V45.4H10.09V10.09H40.36Z"/><path class="cls-1" d="M77.48,22a9.44,9.44,0,0,1-2.43.86,13.65,13.65,0,0,1-2.46.23,8.87,8.87,0,0,1-2.93-.46,6.28,6.28,0,0,1-2.21-1.3,5.54,5.54,0,0,1-1.39-2,6.84,6.84,0,0,1-.48-2.6,6.94,6.94,0,0,1,.27-2,5.59,5.59,0,0,1,.74-1.6,5.05,5.05,0,0,1,1.13-1.22,6.35,6.35,0,0,1,1.44-.87,7.54,7.54,0,0,1,1.67-.51,9.94,9.94,0,0,1,1.82-.16,10.17,10.17,0,0,1,1.49.1c.47.06.91.14,1.31.23s.78.2,1.11.31l.87.3v3.29l-.65-.39a8,8,0,0,0-.88-.44,7.88,7.88,0,0,0-1.1-.36,5.45,5.45,0,0,0-1.3-.15,4.65,4.65,0,0,0-1.54.25,4.1,4.1,0,0,0-1.31.69,3.5,3.5,0,0,0-.91,1.11,3.07,3.07,0,0,0-.35,1.47,3.18,3.18,0,0,0,.29,1.33,3.31,3.31,0,0,0,.8,1.09,3.91,3.91,0,0,0,1.24.73,4.38,4.38,0,0,0,1.57.27,6.68,6.68,0,0,0,1.39-.14,8.26,8.26,0,0,0,1.18-.35,6.9,6.9,0,0,0,.94-.44c.27-.15.5-.29.68-.41Z"/><path class="cls-1" d="M91.82,10.55v2.74H87.28v9.65H83.54V13.29H79V10.55Z"/><path class="cls-1" d="M95.72,20.42l-1,2.52H90.86l5.48-12.39h4.13l5.46,12.39h-3.82l-1-2.52Zm4.52-2.15-1.81-4.52-1.84,4.52Z"/><path class="cls-1" d="M111.26,18.1v4.84h-3.74V10.55h3.74V15.1h5.62V10.55h3.74V22.94h-3.74V18.1Z"/><path class="cls-1" d="M122.29,20.19h1.83l4.63-9.81h2.47l4.5,9.81h1.85v5h-3.11V22.94H125.4v2.28h-3.11Zm5.41,0h4.47L130,14.87Z"/><path class="cls-1" d="M143.37,20.42l-1,2.52h-3.83L144,10.55h4.13l5.46,12.39h-3.83l-1-2.52Zm4.53-2.15-1.82-4.52-1.83,4.52Z"/><path class="cls-1" d="M161.36,10.55a6.48,6.48,0,0,1,1.54.17,4.69,4.69,0,0,1,1.18.47,3.66,3.66,0,0,1,.85.69,3.41,3.41,0,0,1,.56.82,3.73,3.73,0,0,1,.32.88,4.43,4.43,0,0,1,.09.87,4.32,4.32,0,0,1-.09.85,3.83,3.83,0,0,1-.32.87,3.36,3.36,0,0,1-.56.81,3.63,3.63,0,0,1-.85.68,4.68,4.68,0,0,1-1.18.46,6.48,6.48,0,0,1-1.54.17h-2.45v4.65h-3.73V10.55Zm-2.45,2.38v3h.81a8.61,8.61,0,0,0,1.11-.06,2,2,0,0,0,.74-.22.9.9,0,0,0,.4-.44,1.7,1.7,0,0,0,.13-.73,1.78,1.78,0,0,0-.13-.74,1,1,0,0,0-.4-.47,1.84,1.84,0,0,0-.74-.25,7.25,7.25,0,0,0-1.13-.07Z"/><path class="cls-1" d="M180,10.55v2.74h-4.54v9.65h-3.74V13.29h-4.54V10.55Z"/><path class="cls-1" d="M66.39,32.86h3.39l3.8,4.64,3.83-4.64H80.8V45.24H77.06V38.07l-3.37,4.15H73.4L70,38.07v7.17H66.39Z"/><path class="cls-1" d="M87.25,42.73l-1,2.51H82.4l5.47-12.38H92l5.47,12.38H93.64l-1-2.51Zm4.52-2.15L90,36.06l-1.84,4.52Z"/><path class="cls-1" d="M109.59,44.31a8.69,8.69,0,0,1-2.44.86,12.63,12.63,0,0,1-2.45.23,8.72,8.72,0,0,1-2.94-.46,6.22,6.22,0,0,1-2.21-1.3,5.64,5.64,0,0,1-1.38-2A6.75,6.75,0,0,1,97.69,39a7.26,7.26,0,0,1,.26-2,6,6,0,0,1,.74-1.6,5.52,5.52,0,0,1,1.13-1.23,6.77,6.77,0,0,1,1.45-.86,7.54,7.54,0,0,1,1.67-.51,9.83,9.83,0,0,1,1.81-.16,11.7,11.7,0,0,1,1.49.09c.48.07.91.15,1.32.24s.77.19,1.1.3l.87.3v3.29l-.64-.39a8.24,8.24,0,0,0-.89-.43,7.47,7.47,0,0,0-1.1-.36,5.33,5.33,0,0,0-1.3-.15,5,5,0,0,0-1.54.24,4.23,4.23,0,0,0-1.31.7,3.6,3.6,0,0,0-.91,1.1,3.12,3.12,0,0,0-.34,1.47,3.22,3.22,0,0,0,.28,1.34,3.45,3.45,0,0,0,.81,1.09,3.86,3.86,0,0,0,1.23.73,4.44,4.44,0,0,0,1.58.27,6.11,6.11,0,0,0,1.39-.15A8.69,8.69,0,0,0,108,42a8.15,8.15,0,0,0,.93-.44l.69-.41Z"/><path class="cls-1" d="M123.92,32.86V35.6h-4.54v9.64h-3.74V35.6H111.1V32.86Z"/><path class="cls-1" d="M135.11,42.75v2.49h-9.34V32.86H135v2.48h-5.45v2.27h5.2V40.1h-5.2v2.65Z"/><path class="cls-1" d="M143.64,32.86a6,6,0,0,1,1.54.17,4.69,4.69,0,0,1,1.18.47,3.63,3.63,0,0,1,.85.68,3.85,3.85,0,0,1,.56.82,3.8,3.8,0,0,1,.32.89,4.46,4.46,0,0,1,.1.86,4.37,4.37,0,0,1-.1.86,3.8,3.8,0,0,1-.88,1.68,3.63,3.63,0,0,1-.85.68,5.09,5.09,0,0,1-1.18.46,6.42,6.42,0,0,1-1.54.17H141.2v4.64h-3.74V32.86Zm-2.44,2.37v3h.8a8.61,8.61,0,0,0,1.11-.06,2,2,0,0,0,.74-.22,1,1,0,0,0,.4-.44,1.7,1.7,0,0,0,.13-.73,1.75,1.75,0,0,0-.13-.74,1,1,0,0,0-.4-.48,2.21,2.21,0,0,0-.74-.25,8.73,8.73,0,0,0-1.13-.07Z"/></g></g></svg>