<svg xmlns="http://www.w3.org/2000/svg" viewBox="0 0 200 84.09"><defs><style>.cls-1{fill:#fff;}</style></defs><title>5</title><g id="Слой_2" data-name="Слой 2"><g id="Layer_1" data-name="Layer 1"><path class="cls-1" d="M199.22,83a1.37,1.37,0,0,1-1.25-.82L186.78,57.06a1.38,1.38,0,0,0-1.26-.82l-3.35,0v.68h0a1.37,1.37,0,0,1,1.37,1.37V81.63A1.37,1.37,0,0,1,182.17,83h0v.68h4.11V83h-.68a1.37,1.37,0,0,1-1.37-1.38V76.82h8.6l2.32,5.2a.7.7,0,0,1-.64,1v.68H200V83Zm-15-6.88V58.31h.36l7.94,17.82Z"/><polygon class="cls-1" points="0 56.26 0 56.94 1.36 56.94 1.36 83 0 83 0 83.69 5.22 83.69 5.22 83 3.84 83 3.84 56.94 5.22 56.94 5.22 56.26 0 56.26"/><polygon class="cls-1" points="148.01 56.26 148.01 56.94 149.37 56.94 149.37 83 148.01 83 148.01 83.69 153.22 83.69 153.22 83 151.85 83 151.85 56.94 153.22 56.94 153.22 56.26 148.01 56.26"/><path class="cls-1" d="M94.07,83H90v-26h1.37v-.68H86.15v.68h1.37V83l-1.37,0v.66h12l1.91-4.09h-.68A5.91,5.91,0,0,1,94.07,83Z"/><path class="cls-1" d="M75.18,83H73.51L62,57.06a1.37,1.37,0,0,0-1.26-.82l-3.35,0v.68h0a1.38,1.38,0,0,1,1.38,1.37V81.63A1.38,1.38,0,0,1,57.34,83h0v.68h4.12V83h-.69a1.37,1.37,0,0,1-1.37-1.38V76.82H68L70.76,83H69.69v.68h5.49ZM59.4,76.13V58.31h.37L67.7,76.13Z"/><path class="cls-1" d="M117.7,56.93h1.37v-.69h-3.86l-12,25.65A1.94,1.94,0,0,1,101.49,83v.68h4.12V83h-.9a.83.83,0,0,1-.75-1.18l2.34-5h8.91V83h-1.37v.68h5.23V83H117.7Zm-2.49,19.2h-8.59l8.32-17.83h.27Z"/><path class="cls-1" d="M27.17,58.31a1.37,1.37,0,0,1,1.37-1.37h0v-.68H24.42v.68h.69a1.37,1.37,0,0,1,1.37,1.37V81.94L15.18,57.05a1.39,1.39,0,0,0-1.26-.82H10.7v.71h0a1.38,1.38,0,0,1,1.37,1.37V81.63A1.38,1.38,0,0,1,10.71,83h0v.68h4.11V83h-.69a1.38,1.38,0,0,1-1.37-1.38V58.31h.3L24.71,84.09l2.46-.69Z"/><path class="cls-1" d="M50.49,58.31a1.37,1.37,0,0,1,1.37-1.37h0v-.68H47.75v.68h.68a1.37,1.37,0,0,1,1.37,1.37V81.94L38.5,57.05a1.37,1.37,0,0,0-1.25-.82H34v.71h0a1.37,1.37,0,0,1,1.37,1.37V81.63A1.37,1.37,0,0,1,34,83h0v.68h4.11V83h-.68a1.37,1.37,0,0,1-1.37-1.38V58.31h.29L48,84.09l2.45-.69Z"/><path class="cls-1" d="M141,58.31a1.38,1.38,0,0,1,1.37-1.37h0v-.68h-4.11v.68H139a1.38,1.38,0,0,1,1.38,1.37V81.94L129,57.05a1.37,1.37,0,0,0-1.25-.82h-3.23v.71h0a1.37,1.37,0,0,1,1.37,1.37V81.63A1.37,1.37,0,0,1,124.55,83h0v.68h4.12V83H128a1.37,1.37,0,0,1-1.37-1.38V58.31h.3l11.65,25.78L141,83.4Z"/><path class="cls-1" d="M175.31,58.31a1.37,1.37,0,0,1,1.37-1.37h0v-.68h-4.11v.68h.68a1.37,1.37,0,0,1,1.37,1.37V81.94l-11.3-24.89a1.37,1.37,0,0,0-1.25-.82h-3.23v.71h0a1.37,1.37,0,0,1,1.37,1.37V81.63A1.37,1.37,0,0,1,158.85,83h0v.68H163V83h-.68a1.37,1.37,0,0,1-1.37-1.38V58.31h.29l11.66,25.78,2.45-.69Z"/><path class="cls-1" d="M162.4,2.43A4.1,4.1,0,0,0,158.65,0H124.37l17.38,38.72a4.12,4.12,0,0,0,3.75,2.43h34.28ZM149.73,7.54V34.29h-3.84V33.6h1.37V7.54h-1.37V6.86h3.84Zm2.75,26.75V6.86h3.82v.68h-1.37V33.61H159a5.91,5.91,0,0,0,5.35-3.41h.69l-1.91,4.09Z"/></g></g></svg>