<svg xmlns="http://www.w3.org/2000/svg" viewBox="0 0 200 53.47"><defs><style>.cls-1{fill:#fff;}</style></defs><title>6</title><g id="Слой_2" data-name="Слой 2"><g id="Layer_1" data-name="Layer 1"><path class="cls-1" d="M187.37,0H12.63A12.65,12.65,0,0,0,0,12.63V40.84A12.64,12.64,0,0,0,12.63,53.47H187.37A12.64,12.64,0,0,0,200,40.84V12.63A12.65,12.65,0,0,0,187.37,0Zm10.1,40.84A10.11,10.11,0,0,1,187.37,51H12.63A10.11,10.11,0,0,1,2.53,40.84V12.63a10.1,10.1,0,0,1,10.1-10.1H187.37a10.1,10.1,0,0,1,10.1,10.1Z"/><path class="cls-1" d="M25.91,19.41a.65.65,0,0,0,.65-.65V17.12l.16,0,.22,0h.38a3.81,3.81,0,0,0,.95-.12,2.32,2.32,0,0,0,.82-.4,2,2,0,0,0,.58-.71,2.28,2.28,0,0,0,.22-1.06,2.19,2.19,0,0,0-.25-1.12,1.93,1.93,0,0,0-.65-.68,2.48,2.48,0,0,0-.9-.32,6.61,6.61,0,0,0-1-.08c-.32,0-.64,0-1,0l-.25,0a.7.7,0,0,0-.63.7v5.32A.65.65,0,0,0,25.91,19.41Zm.65-5.4a.2.2,0,0,1,.17-.2h.47a2.63,2.63,0,0,1,.49.05,1.28,1.28,0,0,1,.42.17,1,1,0,0,1,.3.33,1.07,1.07,0,0,1,.11.51,1.28,1.28,0,0,1-.12.6.93.93,0,0,1-.32.36,1.28,1.28,0,0,1-.45.17,2.07,2.07,0,0,1-.5.05h-.29l-.16,0-.12,0Z"/><path class="cls-1" d="M37.32,18.6a2.34,2.34,0,0,0,.88.7,3,3,0,0,0,1.25.24,2.54,2.54,0,0,0,2.09-.89,3.94,3.94,0,0,0,.73-2.56,5.27,5.27,0,0,0-.17-1.42,3.15,3.15,0,0,0-.52-1.09,2.32,2.32,0,0,0-.88-.7,2.88,2.88,0,0,0-1.25-.25,2.55,2.55,0,0,0-2.09.9,4,4,0,0,0-.73,2.56,5.56,5.56,0,0,0,.17,1.41A3.3,3.3,0,0,0,37.32,18.6Zm1.06-4.25A1.33,1.33,0,0,1,40.13,14a1.28,1.28,0,0,1,.44.48,2.58,2.58,0,0,1,.26.74,5,5,0,0,1,.08.9,3.19,3.19,0,0,1-.38,1.76,1.26,1.26,0,0,1-1.08.54,1.23,1.23,0,0,1-.65-.17,1.3,1.3,0,0,1-.45-.48,2.32,2.32,0,0,1-.27-.73,5.25,5.25,0,0,1-.08-.92A3.16,3.16,0,0,1,38.38,14.35Z"/><path class="cls-1" d="M49.33,20.6a.5.5,0,0,0,.49-.43l.07-.59a.19.19,0,0,1,.19-.17H54a.19.19,0,0,1,.19.17l.07.59a.5.5,0,0,0,.49.43.48.48,0,0,0,.48-.49V18.45a.19.19,0,0,0-.19-.2h-.46a.19.19,0,0,1-.19-.19V13.51a.76.76,0,0,0-.75-.75H51.16a.74.74,0,0,0-.74.74c0,.6-.05,1.14-.1,1.61a14.56,14.56,0,0,1-.25,1.66,6.41,6.41,0,0,1-.31,1c-.06.15-.12.27-.16.36a.19.19,0,0,1-.17.1H49a.2.2,0,0,0-.19.2v1.66A.49.49,0,0,0,49.33,20.6ZM51,18a10.67,10.67,0,0,0,.33-1.31,16.24,16.24,0,0,0,.27-2.58.2.2,0,0,1,.19-.19h1.1a.2.2,0,0,1,.19.2v3.94a.19.19,0,0,1-.19.19H51.2A.19.19,0,0,1,51,18Z"/><path class="cls-1" d="M65.69,15.74l.44-.88h.05l-.08.86v3a.65.65,0,0,0,.65.65h0a.65.65,0,0,0,.65-.65V13.4a.64.64,0,0,0-.63-.64.66.66,0,0,0-.53.28L64,16.34v0l-.46.91h-.06l.09-.89v-3a.66.66,0,0,0-1.31,0v5.36a.64.64,0,0,0,.64.64.62.62,0,0,0,.53-.28l2.29-3.36Z"/><path class="cls-1" d="M79.28,12.76a.66.66,0,0,0-.65.65v1.87a.19.19,0,0,1-.19.19h-2a.2.2,0,0,1-.19-.19V13.41a.66.66,0,0,0-.65-.65h0a.66.66,0,0,0-.65.65v5.35a.65.65,0,1,0,1.3,0V16.82a.2.2,0,0,1,.19-.19h2a.19.19,0,0,1,.19.19v1.94a.65.65,0,0,0,.65.65h0a.65.65,0,0,0,.65-.65V13.41A.66.66,0,0,0,79.28,12.76Z"/><path class="cls-1" d="M87.83,19.41a.61.61,0,0,0,.58-.41l.32-.93a.18.18,0,0,1,.18-.13h1.77a.19.19,0,0,1,.18.13l.33.92a.65.65,0,0,0,.61.42.64.64,0,0,0,.6-.86l-1.92-5.38a.68.68,0,0,0-.64-.45h0a.67.67,0,0,0-.64.45L87.26,18.6A.6.6,0,0,0,87.83,19.41Zm1.36-2.77.39-1.2v0l.2-1h0l.2,1v0l.4,1.21a.2.2,0,0,1-.18.26h-.89A.19.19,0,0,1,89.19,16.64Z"/><path class="cls-1" d="M106.08,16.28l-.26.19,0,.06-1.14,1.91a.64.64,0,1,0,1.12.63l1.31-2.46a.21.21,0,0,1,.1-.09h0a.19.19,0,0,1,.26.18v2.1a.62.62,0,0,0,.62.62.61.61,0,0,0,.61-.62V16.72a.19.19,0,0,1,.2-.19h.06a.18.18,0,0,1,.17.1l1.29,2.43a.67.67,0,1,0,1.17-.65l-1.15-2a.1.1,0,0,0,0-.06l-.3-.22a.19.19,0,0,1,0-.31l.19-.14a.13.13,0,0,0,.06-.07l1-1.94a.64.64,0,1,0-1.14-.58L109,15.52a.22.22,0,0,1-.1.09.2.2,0,0,1-.27-.18v-2a.61.61,0,0,0-.61-.62.62.62,0,0,0-.62.62v2a.19.19,0,0,1-.19.19h-.06a.19.19,0,0,1-.17-.1l-1.15-2.37a.67.67,0,0,0-.59-.37.66.66,0,0,0-.58,1l1.08,2,.06.06.24.17A.19.19,0,0,1,106.08,16.28Z"/><path class="cls-1" d="M119.55,19.41a.59.59,0,0,0,.57-.41l.32-.93a.19.19,0,0,1,.18-.13h1.77a.18.18,0,0,1,.18.13l.34.92a.64.64,0,0,0,1.21-.44l-1.92-5.38a.69.69,0,0,0-1.29,0L119,18.6A.61.61,0,0,0,119.55,19.41Zm1.35-2.77.4-1.2v0l.2-1h0l.2,1v0l.41,1.21a.2.2,0,0,1-.18.26h-.9A.2.2,0,0,1,120.9,16.64Z"/><path class="cls-1" d="M133.12,18.74a3.19,3.19,0,0,0,.34-.79,6.48,6.48,0,0,0,.21-1.05c.06-.4.1-.84.13-1.33s0-.89.08-1.4a.25.25,0,0,1,.25-.25H135a.26.26,0,0,1,.26.26v4.58a.65.65,0,0,0,1.3,0V13.41a.66.66,0,0,0-.65-.65h-2.63a.65.65,0,0,0-.65.64c0,.51,0,1-.06,1.39,0,.58-.07,1.08-.13,1.5a7.93,7.93,0,0,1-.18,1,1.87,1.87,0,0,1-.25.61.63.63,0,0,1-.25.26.66.66,0,0,1-.3.07.22.22,0,0,0-.26.21l-.08.67a.26.26,0,0,0,.19.29l.07,0a1.9,1.9,0,0,0,.37,0l.32,0,.36-.12a1.92,1.92,0,0,0,.35-.23A1.79,1.79,0,0,0,133.12,18.74Z"/><path class="cls-1" d="M150.9,18.65a4.19,4.19,0,0,0,.68-2.56,5.71,5.71,0,0,0-.16-1.42,3.09,3.09,0,0,0-.48-1.09,2.2,2.2,0,0,0-.84-.7,2.77,2.77,0,0,0-1.24-.25,2.44,2.44,0,0,0-1.89.74,3.34,3.34,0,0,0-.77,1.88.26.26,0,0,1-.26.22h-.39a.26.26,0,0,1-.26-.26v-1.8a.65.65,0,0,0-1.3,0v5.35a.65.65,0,0,0,1.3,0V16.89a.26.26,0,0,1,.26-.26h.39a.26.26,0,0,1,.26.22,4.85,4.85,0,0,0,.22,1,2.94,2.94,0,0,0,.52.92,2.42,2.42,0,0,0,.82.59,2.7,2.7,0,0,0,1.1.2A2.4,2.4,0,0,0,150.9,18.65Zm-3.1-.91a2.33,2.33,0,0,1-.22-.73,5.25,5.25,0,0,1-.08-.92,3.51,3.51,0,0,1,.34-1.74,1.24,1.24,0,0,1,1.68-.38,1.23,1.23,0,0,1,.42.48,2.58,2.58,0,0,1,.21.74,6.27,6.27,0,0,1,.06.9,3.56,3.56,0,0,1-.33,1.76,1.1,1.1,0,0,1-1,.54,1.2,1.2,0,0,1-.64-.17A1.4,1.4,0,0,1,147.8,17.74Z"/><path class="cls-1" d="M161.22,15.88v-.05a1.5,1.5,0,0,0,.84-.61,1.69,1.69,0,0,0,.26-.91,1.62,1.62,0,0,0-.19-.81,1.55,1.55,0,0,0-.51-.51,2.14,2.14,0,0,0-.71-.26,4.38,4.38,0,0,0-.82-.08,3.81,3.81,0,0,0-.59,0,4.16,4.16,0,0,0-.55.1l-.19.05a.58.58,0,0,0-.4.72h0a.58.58,0,0,0,.71.39,3.47,3.47,0,0,1,.83-.14,1.43,1.43,0,0,1,.76.17.65.65,0,0,1,.29.62.63.63,0,0,1-.24.52,1.37,1.37,0,0,1-.57.27.77.77,0,0,1-.2,0l-.25,0h-.18a.51.51,0,0,0,0,1h.13a2.33,2.33,0,0,1,1.19.24.77.77,0,0,1,.34.68.88.88,0,0,1-.11.45.91.91,0,0,1-.27.31,1.13,1.13,0,0,1-.39.17,1.52,1.52,0,0,1-.42.06,3.87,3.87,0,0,1-1-.11l-.09,0a.6.6,0,0,0-.72.41.58.58,0,0,0,.43.73l.2.05a5.69,5.69,0,0,0,1.14.1,3.8,3.8,0,0,0,.95-.11,2.37,2.37,0,0,0,.82-.37,1.85,1.85,0,0,0,.58-.63,1.94,1.94,0,0,0,.22-.93,1.52,1.52,0,0,0-1.31-1.62Z"/><path class="cls-1" d="M174.31,12.76a.64.64,0,0,0-.52.28l-2.28,3.3,0,0-.46.91H171l.09-.88v-3a.65.65,0,0,0-1.3,0v5.36a.64.64,0,0,0,.64.64h0a.63.63,0,0,0,.53-.28l2.28-3.36,0,0,.43-.88h.05l-.07.86v3a.65.65,0,1,0,1.3,0V13.4A.64.64,0,0,0,174.31,12.76Z"/><path class="cls-1" d="M41.66,31.51a.82.82,0,0,1-.33-1.08l2.35-5.05a1.26,1.26,0,0,0-1.14-1.8h0a1.27,1.27,0,0,0-1.15.73l-2.77,5.94a.83.83,0,0,1-.76.49H36.63a.42.42,0,0,1-.42-.42V24.84A1.25,1.25,0,0,0,35,23.58h0a1.26,1.26,0,0,0-1.27,1.26v5.48a.42.42,0,0,1-.42.42H32a.85.85,0,0,1-.77-.49L28.5,24.31a1.25,1.25,0,0,0-1.14-.73,1.27,1.27,0,0,0-1.15,1.8l2.36,5.05a.84.84,0,0,1-.33,1.08,5.9,5.9,0,0,0-3,5.12v2.95a1.26,1.26,0,0,0,1.27,1.26h0a1.26,1.26,0,0,0,1.26-1.26V36.63a3.37,3.37,0,0,1,3.37-3.37h2.1a.42.42,0,0,1,.42.42v5.9A1.26,1.26,0,0,0,35,40.84h0a1.25,1.25,0,0,0,1.26-1.26v-5.9a.42.42,0,0,1,.42-.42h2.11a3.37,3.37,0,0,1,3.37,3.37v2.95a1.25,1.25,0,0,0,1.26,1.26h0a1.25,1.25,0,0,0,1.26-1.26V36.63A5.91,5.91,0,0,0,41.66,31.51Z"/><path class="cls-1" d="M54.85,23.16a6,6,0,0,0-6,6V39.58a1.26,1.26,0,0,0,1.27,1.26h0a1.26,1.26,0,0,0,1.26-1.26V36.21a.42.42,0,0,1,.42-.42h5.89a.42.42,0,0,1,.43.42v3.37a1.25,1.25,0,0,0,1.26,1.26h0a1.25,1.25,0,0,0,1.26-1.26V29.05A5.9,5.9,0,0,0,54.85,23.16Zm3.26,9.68a.42.42,0,0,1-.43.42H51.79a.42.42,0,0,1-.42-.42V29.05h0a3.37,3.37,0,1,1,6.74,0Z"/><path class="cls-1" d="M75.37,23.58H73.68a8.84,8.84,0,0,0-8.84,8.84h0v7.16a1.27,1.27,0,0,0,2.53,0V32.42h0a6.31,6.31,0,0,1,6.31-6.31h0a.42.42,0,0,1,.43.42v13a1.26,1.26,0,0,0,2.52,0V24.84A1.25,1.25,0,0,0,75.37,23.58Z"/><path class="cls-1" d="M91.9,23.16a6,6,0,0,0-6,6v1.15a.42.42,0,0,1-.42.42H83.79a.42.42,0,0,1-.42-.42V24.83a1.25,1.25,0,0,0-1.25-1.25h0a1.25,1.25,0,0,0-1.25,1.25V39.58a1.27,1.27,0,0,0,2.53,0v-5.9a.42.42,0,0,1,.42-.42h1.68a.42.42,0,0,1,.42.42v1.69a5.89,5.89,0,0,0,5.78,5.89,6,6,0,0,0,6-6v-6.2A5.89,5.89,0,0,0,91.9,23.16Zm3.26,12.21h0a3.37,3.37,0,0,1-6.74,0V29.05h0a3.37,3.37,0,1,1,6.74,0Z"/><path class="cls-1" d="M110.51,34a.42.42,0,0,1,0-.61,5.9,5.9,0,1,0-9.68-5.92,1.26,1.26,0,0,0,2.44.66,3.37,3.37,0,1,1,3.24,4.3h-.83a1.27,1.27,0,0,0-1.26,1.26h0A1.27,1.27,0,0,0,105.68,35h.83a3.37,3.37,0,0,1,3.37,3.37v2.52a3.37,3.37,0,0,1-6.61.92,1.27,1.27,0,0,0-2.44.67,5.9,5.9,0,0,0,11.58-1.59V38.32A5.87,5.87,0,0,0,110.51,34Z"/><path class="cls-1" d="M127,23.58h0a1.45,1.45,0,0,0-1.26.72l-6.16,10.48a.21.21,0,0,1-.39-.1V24.84a1.26,1.26,0,0,0-1.27-1.26h0a1.26,1.26,0,0,0-1.26,1.26V39.39a1.45,1.45,0,0,0,1.46,1.45h0a1.44,1.44,0,0,0,1.25-.72l6.16-10.48a.21.21,0,0,1,.39.1v9.84a1.26,1.26,0,0,0,1.27,1.26h0a1.25,1.25,0,0,0,1.26-1.26V25A1.45,1.45,0,0,0,127,23.58Z"/><path class="cls-1" d="M143.16,23.58a1.26,1.26,0,0,0-1.27,1.26v5.9a.42.42,0,0,1-.42.42h-5.89a.42.42,0,0,1-.42-.42v-5.9a1.26,1.26,0,0,0-1.27-1.26h0a1.26,1.26,0,0,0-1.26,1.26V39.58a1.26,1.26,0,0,0,1.26,1.26h0a1.26,1.26,0,0,0,1.27-1.26V34.11a.42.42,0,0,1,.42-.43h5.89a.42.42,0,0,1,.42.43v5.47a1.27,1.27,0,0,0,2.53,0V24.84A1.25,1.25,0,0,0,143.16,23.58Z"/><path class="cls-1" d="M154.19,25.69a3.36,3.36,0,0,1,3.37,2.46,1.26,1.26,0,0,0,2.43-.68,5.89,5.89,0,0,0-5.56-4.31,6,6,0,0,0-6,6v6.08a6,6,0,0,0,6,6A5.89,5.89,0,0,0,160,37a1.26,1.26,0,0,0-2.43-.69,3.36,3.36,0,0,1-3.37,2.46A3.46,3.46,0,0,1,151,35.29V29.13A3.47,3.47,0,0,1,154.19,25.69Z"/><path class="cls-1" d="M171.67,31.35a.43.43,0,0,1-.2-.56L174,25.38a1.27,1.27,0,0,0-1.15-1.8h0a1.25,1.25,0,0,0-1.14.73l-2.77,5.94a.85.85,0,0,1-.77.49H167a.42.42,0,0,1-.42-.42V24.84a1.27,1.27,0,0,0-2.53,0V39.58a1.27,1.27,0,0,0,2.53,0v-5.9a.42.42,0,0,1,.42-.42h2.1a3.37,3.37,0,0,1,3.37,3.37v2.95a1.27,1.27,0,0,0,2.53,0V36.63A5.9,5.9,0,0,0,171.67,31.35Z"/><path class="cls-1" d="M13.89,12.63a1.27,1.27,0,0,0-1.26,1.26V39.58a1.27,1.27,0,0,0,2.53,0V13.89A1.27,1.27,0,0,0,13.89,12.63Z"/><path class="cls-1" d="M186.32,12.63h0a1.27,1.27,0,0,0-1.27,1.26V39.58a1.26,1.26,0,0,0,1.27,1.26h0a1.26,1.26,0,0,0,1.26-1.26V13.89A1.27,1.27,0,0,0,186.32,12.63Z"/></g></g></svg>