<svg xmlns="http://www.w3.org/2000/svg" viewBox="0 0 154 56.75"><defs><style>.cls-1{fill:#fff;}</style></defs><title>7</title><g id="Слой_2" data-name="Слой 2"><g id="Layer_1" data-name="Layer 1"><path class="cls-1" d="M33.52,27.32,25.74,23.7a1.81,1.81,0,0,1,.76-3.44h6.76a3.15,3.15,0,1,0,0-6.3H26.5a8.11,8.11,0,0,0-3.41,15.46L30.87,33a1.8,1.8,0,0,1-.76,3.43H22.45a3.16,3.16,0,0,0,0,6.31h7.66a8.11,8.11,0,0,0,3.41-15.46Z"/><path class="cls-1" d="M125.63,0A28.37,28.37,0,1,0,154,28.37,28.37,28.37,0,0,0,125.63,0Zm.48,36.47a11.76,11.76,0,0,1-2-.17.61.61,0,0,0-.72.61v2.72A3.15,3.15,0,0,1,120,42.76a3.23,3.23,0,0,1-2.84-3.27v-21A3.07,3.07,0,0,1,118,16.3a11.71,11.71,0,1,1,8.08,20.17Z"/><path class="cls-1" d="M126.11,19.36a5.32,5.32,0,0,0-2.36.55.64.64,0,0,0-.34.56v8.59a.63.63,0,0,0,.34.56,5.29,5.29,0,0,0,3.22.48,5.4,5.4,0,0,0-.86-10.74Z"/><path class="cls-1" d="M89.53,38.82l-5.1-19.17a7.66,7.66,0,0,0-14.8,0l-5.1,19.17a3.2,3.2,0,0,0-.07,1.35,3.16,3.16,0,0,0,6.16.28l1.17-4.4a.62.62,0,0,1,.6-.47h9.27a.63.63,0,0,1,.61.47l1.17,4.4a3.15,3.15,0,0,0,6.15-.28A3.2,3.2,0,0,0,89.53,38.82ZM74.16,30.18a.62.62,0,0,1-.6-.78l2.16-8.12a1.35,1.35,0,0,1,2.61,0L80.5,29.4a.63.63,0,0,1-.61.78Z"/><path class="cls-1" d="M28.37,0a3.16,3.16,0,1,0,3.15,3.15A3.15,3.15,0,0,0,28.37,0Z"/><path class="cls-1" d="M28.37,50.44a3.16,3.16,0,1,0,3.15,3.16A3.16,3.16,0,0,0,28.37,50.44Z"/><path class="cls-1" d="M6.3,28.38a3.15,3.15,0,1,0-3.15,3.15A3.15,3.15,0,0,0,6.3,28.38Z"/><path class="cls-1" d="M53.58,25.23a3.15,3.15,0,1,0,3.16,3.15A3.15,3.15,0,0,0,53.58,25.23Z"/><circle class="cls-1" cx="10.54" cy="10.55" r="3.15"/><circle class="cls-1" cx="46.2" cy="46.21" r="3.15"/><circle class="cls-1" cx="10.54" cy="46.21" r="3.15"/><circle class="cls-1" cx="46.2" cy="10.55" r="3.15"/><path class="cls-1" d="M17.51,2.17a3.15,3.15,0,1,0,4.12,1.71A3.15,3.15,0,0,0,17.51,2.17Z"/><path class="cls-1" d="M36.81,48.77a3.15,3.15,0,1,0,4.12,1.7A3.13,3.13,0,0,0,36.81,48.77Z"/><path class="cls-1" d="M8,36.82a3.15,3.15,0,1,0-1.7,4.12A3.14,3.14,0,0,0,8,36.82Z"/><path class="cls-1" d="M48.75,19.94a3.16,3.16,0,1,0,1.71-4.12A3.16,3.16,0,0,0,48.75,19.94Z"/><path class="cls-1" d="M3.87,21.64a3.15,3.15,0,1,0-1.71-4.12A3.14,3.14,0,0,0,3.87,21.64Z"/><path class="cls-1" d="M52.87,35.12a3.15,3.15,0,1,0,1.71,4.12A3.16,3.16,0,0,0,52.87,35.12Z"/><path class="cls-1" d="M19.92,48.77a3.15,3.15,0,1,0,1.71,4.11A3.14,3.14,0,0,0,19.92,48.77Z"/><path class="cls-1" d="M39.22,2.17a3.15,3.15,0,1,0,1.71,4.12A3.15,3.15,0,0,0,39.22,2.17Z"/></g></g></svg>