<svg xmlns="http://www.w3.org/2000/svg" viewBox="0 0 200 35.79"><defs><style>.cls-1{fill:#fff;}</style></defs><title>8</title><g id="Слой_2" data-name="Слой 2"><g id="Layer_1" data-name="Layer 1"><path class="cls-1" d="M23.56,24.46H4.3a3.17,3.17,0,0,1,0-6.34H23.56a.24.24,0,0,0,.16-.07.22.22,0,0,0,.06-.16.22.22,0,0,0-.22-.22.91.91,0,1,1,0-1.81,2,2,0,0,1,0,4.07H4.3a1.36,1.36,0,0,0,0,2.72H23.56a4.76,4.76,0,0,0,0-9.51h-17A6.57,6.57,0,0,1,6.57,0H25.82a3.17,3.17,0,0,1,0,6.34H6.57a.23.23,0,0,0-.23.23.23.23,0,0,0,.23.23.91.91,0,0,1,0,1.81,2,2,0,0,1,0-4.08H25.82a1.36,1.36,0,0,0,0-2.72H6.57a4.76,4.76,0,0,0,0,9.52h17a6.57,6.57,0,0,1,0,13.13Z"/><path class="cls-1" d="M56.4,24.46h-17a6.57,6.57,0,1,1,0-13.13H55.27a3.17,3.17,0,0,1,0,6.34H39.41a.23.23,0,1,0,0,.45.91.91,0,1,1,0,1.81,2,2,0,1,1,0-4.08H55.27a1.36,1.36,0,0,0,0-2.71H39.41a4.76,4.76,0,1,0,0,9.51h17a4.76,4.76,0,0,0,4.75-4.76V6.57A4.76,4.76,0,0,0,56.4,1.81H37.15a1.36,1.36,0,1,0,0,2.72H56.4a2,2,0,0,1,2,2,.91.91,0,0,1-1.82,0,.22.22,0,0,0-.22-.23H37.15a3.17,3.17,0,1,1,0-6.34H56.4A6.58,6.58,0,0,1,63,6.57V17.89A6.57,6.57,0,0,1,56.4,24.46Z"/><path class="cls-1" d="M70.84,35.79a3.17,3.17,0,0,1,0-6.34H90.09a.23.23,0,0,0,.23-.23.91.91,0,1,1,1.81,0,2,2,0,0,1-2,2H70.84a1.36,1.36,0,0,0,0,2.72H90.09a4.77,4.77,0,0,0,4.76-4.76V6.57a4.77,4.77,0,0,0-4.76-4.76h-17a4.76,4.76,0,0,0-4.75,4.76V17.89a4.76,4.76,0,0,0,4.75,4.76H89a1.36,1.36,0,0,0,0-2.72H73.1a2,2,0,0,1-2-2,.91.91,0,0,1,1.81,0,.22.22,0,0,0,.22.23H89a3.17,3.17,0,1,1,0,6.34H73.1a6.57,6.57,0,0,1-6.56-6.57V6.57A6.57,6.57,0,0,1,73.1,0h17a6.58,6.58,0,0,1,6.57,6.57V29.22a6.58,6.58,0,0,1-6.57,6.57Z"/><path class="cls-1" d="M163.42,24.46a3.17,3.17,0,0,1-3.17-3.17V7.7a1.36,1.36,0,0,0-1.36-1.36h-4.53A1.36,1.36,0,0,0,153,7.7V21.29a3.17,3.17,0,1,1-6.34,0,.91.91,0,0,1,1.81,0,1.36,1.36,0,1,0,2.72,0V7.7a3.17,3.17,0,0,1,3.17-3.17h4.53a3.17,3.17,0,0,1,3.17,3.17V21.29a1.36,1.36,0,0,0,2.72,0V6.57A4.76,4.76,0,0,0,160,1.81H139.64a4.76,4.76,0,0,0-4.76,4.76V21.29a1.36,1.36,0,1,0,2.72,0V6.57a2,2,0,0,1,2-2,.91.91,0,0,1,0,1.81.23.23,0,0,0-.23.23V21.29a3.17,3.17,0,1,1-6.34,0V6.57A6.58,6.58,0,0,1,139.64,0H160a6.58,6.58,0,0,1,6.57,6.57V21.29A3.17,3.17,0,0,1,163.42,24.46Z"/><path class="cls-1" d="M123.5,24.46h-17a6.57,6.57,0,1,1,0-13.13h15.86a3.17,3.17,0,1,1,0,6.34H106.51a.23.23,0,1,0,0,.45.91.91,0,1,1,0,1.81,2,2,0,0,1,0-4.08h15.86a1.36,1.36,0,1,0,0-2.71H106.51a4.76,4.76,0,0,0,0,9.51h17a4.76,4.76,0,0,0,4.76-4.76V6.57a4.77,4.77,0,0,0-4.76-4.76H104.25a1.36,1.36,0,1,0,0,2.72H123.5a2,2,0,0,1,2,2,.91.91,0,0,1-1.81,0,.23.23,0,0,0-.23-.23H104.25a3.17,3.17,0,0,1,0-6.34H123.5a6.58,6.58,0,0,1,6.57,6.57V17.89A6.57,6.57,0,0,1,123.5,24.46Z"/><path class="cls-1" d="M193.43,24.46h-17a6.57,6.57,0,0,1,0-13.13H192.3a3.17,3.17,0,0,1,0,6.34H176.44a.22.22,0,0,0-.22.22.22.22,0,0,0,.22.23.91.91,0,1,1,0,1.81,2,2,0,0,1,0-4.08H192.3a1.36,1.36,0,1,0,0-2.71H176.44a4.76,4.76,0,0,0,0,9.51h17a4.76,4.76,0,0,0,4.76-4.76V6.57a4.77,4.77,0,0,0-4.76-4.76H174.18a1.36,1.36,0,0,0,0,2.72h19.25a2,2,0,0,1,2,2,.91.91,0,0,1-1.81,0,.23.23,0,0,0-.23-.23H174.18a3.17,3.17,0,0,1,0-6.34h19.25A6.58,6.58,0,0,1,200,6.57V17.89A6.57,6.57,0,0,1,193.43,24.46Z"/></g></g></svg>