<svg xmlns="http://www.w3.org/2000/svg" viewBox="0 0 220 34.29"><defs><style>.cls-1{fill:#fff;}</style></defs><title>9</title><g id="Слой_2" data-name="Слой 2"><g id="Layer_1" data-name="Layer 1"><path class="cls-1" d="M25.35,15.36,34,.34a.23.23,0,0,0-.2-.34H28.29a3.43,3.43,0,0,0-3,1.72L16,17.84a.23.23,0,0,0,.12.33,17.16,17.16,0,0,1,9.73,8.93.23.23,0,0,1-.21.33H7.09a.23.23,0,0,1-.23-.23V7.09a.23.23,0,0,1,.23-.23h9.32a3.45,3.45,0,0,0,3-1.72L22.15.34A.23.23,0,0,0,22,0H.23A.23.23,0,0,0,0,.23V34.06a.23.23,0,0,0,.23.23H34.05a.23.23,0,0,0,.23-.24,23.94,23.94,0,0,0-8.87-18.4A.23.23,0,0,1,25.35,15.36Z"/><path class="cls-1" d="M156,18.29A6.42,6.42,0,0,0,149.75,12a10.28,10.28,0,0,0-6.38,2,.22.22,0,0,0-.06.3l.65,1.13a.86.86,0,0,0,1.15.32,8.7,8.7,0,0,1,4.65-1.16A3.53,3.53,0,0,1,153.14,18v.92a.22.22,0,0,1-.22.22h-5.7a4.9,4.9,0,0,0-4.93,4.78,5,5,0,0,0,4.85,4.94,9.55,9.55,0,0,0,5.8-1.63.23.23,0,0,1,.32.08l.48.83a.86.86,0,0,0,.74.43h1.29a.23.23,0,0,0,.23-.23ZM152.54,25a7.26,7.26,0,0,1-4.71,1.55A2.71,2.71,0,0,1,145.14,24a2.57,2.57,0,0,1,2.57-2.57h5.21a.22.22,0,0,1,.22.23v2.19A1.44,1.44,0,0,1,152.54,25Z"/><path class="cls-1" d="M186.29,18.29A6.42,6.42,0,0,0,180,12a10.26,10.26,0,0,0-6.38,2,.22.22,0,0,0-.07.3l.65,1.13a.86.86,0,0,0,1.15.32A8.7,8.7,0,0,1,180,14.57,3.54,3.54,0,0,1,183.43,18v.92a.22.22,0,0,1-.23.22h-5.69a4.91,4.91,0,0,0-4.94,4.78,5,5,0,0,0,4.86,4.94,9.57,9.57,0,0,0,5.8-1.63.23.23,0,0,1,.32.08l.48.83a.84.84,0,0,0,.74.43h1.29a.23.23,0,0,0,.23-.23ZM182.83,25a7.26,7.26,0,0,1-4.71,1.55A2.7,2.7,0,0,1,175.43,24,2.57,2.57,0,0,1,178,21.43h5.2a.23.23,0,0,1,.23.23v2.19A1.44,1.44,0,0,1,182.83,25Z"/><path class="cls-1" d="M200.29,13.14v5.78a.23.23,0,0,1-.23.22h-7.83a.22.22,0,0,1-.23-.22V12.51a.22.22,0,0,0-.23-.22h-2.4a.22.22,0,0,0-.23.22V28.34a.23.23,0,0,0,.23.23h1.77a.85.85,0,0,0,.86-.86V21.66a.23.23,0,0,1,.23-.23h7.83a.23.23,0,0,1,.23.23v6.68a.22.22,0,0,0,.22.23h2.41a.22.22,0,0,0,.22-.23V12.51a.22.22,0,0,0-.22-.22h-1.78A.85.85,0,0,0,200.29,13.14Z"/><path class="cls-1" d="M134.06,17.33a.22.22,0,0,1,0-.37,8.62,8.62,0,0,0,2.42-2.67l4.75-8.23a.23.23,0,0,0-.2-.35h-2.24a1.73,1.73,0,0,0-1.49.86l-4.45,7.72a2.85,2.85,0,0,1-2.47,1.42h-2.44a.23.23,0,0,1-.23-.22V5.94a.23.23,0,0,0-.22-.23H124.8a.23.23,0,0,0-.23.23v22.4a.23.23,0,0,0,.23.23h2.06a.85.85,0,0,0,.85-.85V18.8a.23.23,0,0,1,.23-.23h2.44A2.86,2.86,0,0,1,132.85,20l4.45,7.71a1.73,1.73,0,0,0,1.49.86H141a.23.23,0,0,0,.2-.34L136.48,20A8.51,8.51,0,0,0,134.06,17.33Z"/><path class="cls-1" d="M168.49,20.38a.22.22,0,0,1,0-.38,3.94,3.94,0,0,0,1.7-3.23A4.85,4.85,0,0,0,165.41,12,10.91,10.91,0,0,0,159,13.88a.22.22,0,0,0-.07.3l.62,1.07a.84.84,0,0,0,1.11.34A8.37,8.37,0,0,1,165,14.52a2.38,2.38,0,0,1,2.35,2.21A2.24,2.24,0,0,1,165.13,19h-2.58a.23.23,0,0,0-.23.22v1.18a.84.84,0,0,0,.85.84h1.9a2.56,2.56,0,0,1,2.58,2.57,2.62,2.62,0,0,1-2.52,2.48A10.67,10.67,0,0,1,159.6,25a.22.22,0,0,0-.29.09l-1,1.74a.22.22,0,0,0,.1.31,13.77,13.77,0,0,0,7,1.65,5.18,5.18,0,0,0,5.05-5A3.9,3.9,0,0,0,168.49,20.38Z"/><path class="cls-1" d="M80.29,18.29A6.42,6.42,0,0,0,74,12a10.26,10.26,0,0,0-6.38,2,.22.22,0,0,0-.07.3l.65,1.13a.86.86,0,0,0,1.15.32A8.7,8.7,0,0,1,74,14.57,3.54,3.54,0,0,1,77.43,18v.92a.22.22,0,0,1-.23.22H71.51a4.91,4.91,0,0,0-4.94,4.78,5,5,0,0,0,4.86,4.94,9.57,9.57,0,0,0,5.8-1.63.23.23,0,0,1,.32.08l.48.83a.84.84,0,0,0,.74.43h1.29a.23.23,0,0,0,.23-.23ZM76.83,25a7.26,7.26,0,0,1-4.71,1.55A2.7,2.7,0,0,1,69.43,24,2.57,2.57,0,0,1,72,21.43h5.2a.23.23,0,0,1,.23.23v2.19A1.44,1.44,0,0,1,76.83,25Z"/><path class="cls-1" d="M94.29,13.14v5.78a.23.23,0,0,1-.23.22H86.23a.22.22,0,0,1-.23-.22V12.51a.22.22,0,0,0-.23-.22h-2.4a.22.22,0,0,0-.23.22V28.34a.23.23,0,0,0,.23.23h1.77a.85.85,0,0,0,.86-.86V21.66a.23.23,0,0,1,.23-.23h7.83a.23.23,0,0,1,.23.23v6.68a.22.22,0,0,0,.22.23h2.41a.22.22,0,0,0,.22-.23V12.51a.22.22,0,0,0-.22-.22H95.14A.85.85,0,0,0,94.29,13.14Z"/><path class="cls-1" d="M108.35,20.53a.22.22,0,0,1,0-.37,7.09,7.09,0,0,0,2.12-2.3l3-5.23a.23.23,0,0,0-.2-.34h-2.08A1.41,1.41,0,0,0,110,13l-3.14,5.43a1.41,1.41,0,0,1-1.23.71h-2.52a.23.23,0,0,1-.23-.23v-6.4a.22.22,0,0,0-.23-.22h-2.4a.22.22,0,0,0-.23.22V28.34a.23.23,0,0,0,.23.23H102a.86.86,0,0,0,.86-.86V21.66a.23.23,0,0,1,.23-.23h2.35a1.44,1.44,0,0,1,1.24.71l3.3,5.72a1.41,1.41,0,0,0,1.23.71h2.08a.23.23,0,0,0,.2-.34l-3.18-5.52A7.21,7.21,0,0,0,108.35,20.53Z"/><path class="cls-1" d="M58,15.14h-6a.23.23,0,0,1-.23-.22V8.8a.23.23,0,0,1,.23-.23h8a1.73,1.73,0,0,0,1.49-.86l.95-1.65a.23.23,0,0,0-.19-.35H48.8a.23.23,0,0,0-.23.23v22.4a.23.23,0,0,0,.23.23h9.28a6.71,6.71,0,0,0,6.71-6.8A6.78,6.78,0,0,0,58,15.14Zm-.27,10.57H51.94a.23.23,0,0,1-.23-.22V18.23a.23.23,0,0,1,.23-.23h5.85a3.87,3.87,0,0,1,3.86,3.78A3.92,3.92,0,0,1,57.71,25.71Z"/><path class="cls-1" d="M215.89,13.14,209.07,25a.11.11,0,0,1-.21-.06V12.51a.23.23,0,0,0-.23-.22h-2.4a.22.22,0,0,0-.23.22V28.34a.23.23,0,0,0,.23.23h2.4a1.71,1.71,0,0,0,1.48-.86l6.82-11.8a.11.11,0,0,1,.21.06V28.34a.23.23,0,0,0,.23.23h2.4a.23.23,0,0,0,.23-.23V12.51a.22.22,0,0,0-.23-.22h-2.4A1.7,1.7,0,0,0,215.89,13.14Z"/></g></g></svg>