<svg xmlns="http://www.w3.org/2000/svg" viewBox="0 0 200 133.94"><defs><style>.cls-1{fill:#fff;}.cls-2{fill:#ff6f61;}</style></defs><title>Ресурс 2</title><g id="Слой_2" data-name="Слой 2"><g id="Layer_1" data-name="Layer 1"><path class="cls-1" d="M16.28,61.81a9.6,9.6,0,0,1,3.46,1.43,9,9,0,0,1,2.37,2.62,8.57,8.57,0,0,1,1.08,4.59C23.19,75.52,20,79,13.08,79H0V46.23H12.34a9.86,9.86,0,0,1,3.7.67,8.9,8.9,0,0,1,2.88,1.8,7.88,7.88,0,0,1,1.88,2.74,8.92,8.92,0,0,1,.66,3.43c0,4.6-4.22,6.4-5.18,6.7ZM1.48,47.71V61.07H12.34A7.93,7.93,0,0,0,18,59.2a5.14,5.14,0,0,0,2-4.33,6.9,6.9,0,0,0-2-5.16,7.71,7.71,0,0,0-5.6-2Zm11.6,29.81c6.45,0,8.63-3.36,8.63-7.07a7.58,7.58,0,0,0-2.27-5.73,8.85,8.85,0,0,0-6.36-2.17H1.48v15Z"/><path class="cls-1" d="M54.14,77.52V79H31V46.23H53.64v1.48H32.43V61.32H49.7V62.8H32.43V77.52Z"/><polygon class="cls-1" points="71.27 67.98 62.63 67.98 71.27 47.26 71.27 45.53 70.53 45.53 56.66 79 58.13 79 62.14 69.46 71.27 69.46 71.27 67.98"/><path class="cls-1" d="M38.35.94a11.35,11.35,0,0,1,4.21.74,9.79,9.79,0,0,1,3.29,2.07A9.23,9.23,0,0,1,48,6.88a10.29,10.29,0,0,1,.74,3.92,10.72,10.72,0,0,1-.35,2.84,9.35,9.35,0,0,1-.89,2.22,8,8,0,0,1-1.25,1.68,9.85,9.85,0,0,1-1.46,1.21,10.22,10.22,0,0,1-3.95,1.68l7.6,13.27H46.7l-7.37-13H27.24v13H25.76V.94ZM27.24,2.42V19.19H38.35A10.47,10.47,0,0,0,42,18.58a8.23,8.23,0,0,0,2.81-1.73,7.38,7.38,0,0,0,1.78-2.64,9.08,9.08,0,0,0,.62-3.41,9.15,9.15,0,0,0-.62-3.38,7.37,7.37,0,0,0-1.78-2.66A8.07,8.07,0,0,0,42,3a10.47,10.47,0,0,0-3.67-.61Z"/><path class="cls-1" d="M71.27,33.16a15.44,15.44,0,0,1-6.12-1.22,16,16,0,0,1-5-3.36,16.2,16.2,0,0,1-3.41-5,15.64,15.64,0,0,1-1.25-6.22,15.64,15.64,0,0,1,1.25-6.22,16,16,0,0,1,3.41-5,15.65,15.65,0,0,1,5-3.36,15.28,15.28,0,0,1,6.12-1.23V0a16.6,16.6,0,0,0-6.64,1.35,17.55,17.55,0,0,0-9.25,9.21A16.65,16.65,0,0,0,54,17.32a16.65,16.65,0,0,0,1.38,6.76,17.55,17.55,0,0,0,9.25,9.21,16.6,16.6,0,0,0,6.64,1.35Z"/><path class="cls-1" d="M51.91,91.89v1.48h-21v13.92H48v1.48h-17v15.89H29.46V91.89Z"/><path class="cls-1" d="M71.27,124.12a15.28,15.28,0,0,1-6.12-1.23,15.65,15.65,0,0,1-5-3.36,16,16,0,0,1-3.41-5,16.08,16.08,0,0,1,0-12.43,16.2,16.2,0,0,1,3.41-5,16,16,0,0,1,5-3.36,15.44,15.44,0,0,1,6.12-1.22V91a16.76,16.76,0,0,0-6.64,1.34,17.61,17.61,0,0,0-9.25,9.22,17.25,17.25,0,0,0,0,13.52,17.66,17.66,0,0,0,3.75,5.5,17.44,17.44,0,0,0,5.5,3.71,16.6,16.6,0,0,0,6.64,1.35Z"/><path class="cls-2" d="M93.06,23.22h.7l.47,2.06a10.71,10.71,0,0,0,10.53,8.19c5.62,0,8.66-3,8.66-6.79,0-8.19-18.72-7.72-18.72-18.25C94.7,3.75,98.44,0,104.76,0a14.74,14.74,0,0,1,9.13,2.81V9.6h-.7l-.47-1.88c-1.08-4-3.75-6.55-8-6.55s-6.55,2.34-6.55,5.38c0,7.73,18.72,6.79,18.72,18.49,0,5.39-4,9.6-12.17,9.6-7.49,0-11.7-3.28-11.7-3.28Z"/><path class="cls-2" d="M117.87,32.53h1.4c2.11,0,3.09-.93,3.75-2.81L133.78.23h2.11l11.23,29.49c.75,2,1.41,2.81,3.51,2.81h1.18V33.7H140.1V32.53h3.28l-3.33-8.59H126.61l-3.12,8.59h3V33.7h-8.66Zm21.6-10.07L133.32,5.62l-6.19,16.84Z"/><path class="cls-2" d="M71.27,0V1.48c6.31,0,11.93,5.31,11.93,15.84S77.58,33.16,71.27,33.16v1.48c9.36,0,16.85-7.49,16.85-17.32S80.63,0,71.27,0Z"/><path class="cls-2" d="M92.36,123.49h1.87a2.1,2.1,0,0,0,2.11-2.11V95.17a2.1,2.1,0,0,0-2.11-2.11H92.36V91.89h14.51c8.19,0,12.64,4.45,12.64,10.77,0,5.85-4.68,10.53-12.41,10.53v.24a7.31,7.31,0,0,1,5.58,2.57c2,2.68,16.92,25.67,40.67,11l.46.7c-27.36,18.7-45.54-10.52-45.54-10.52-2.48-3.28-3.27-4-4.68-4v-.93h2.58c5.38,0,8.42-4,8.42-9.6,0-6.08-3.51-9.6-8.42-9.6h-5.39v30.43h4v1.17H92.36Z"/><path class="cls-2" d="M127.29,95.17a2.1,2.1,0,0,0-2.1-2.11h-1.88V91.89h12.17v1.17h-3.74v19.1c0,8.29,4,12.27,9.36,12.27,5.62,0,9.6-4,9.6-11.52V93.06h-4V91.89h9.36v1.17h-1.17c-2.15,0-3,.94-3,3.33v16c0,8.71-4.45,13.16-11.47,13.16-7.72,0-13.11-5.39-13.11-13.16Z"/><path class="cls-2" d="M159.28,123.49h.93c2.15,0,3-.94,3-3.37v-25a2.1,2.1,0,0,0-2.1-2.11h-1.87V91.89h9.36L180.11,119l11-27.15H200v1.17h-3.75v30.43H200v1.17H188.06v-1.17h1.64a2.1,2.1,0,0,0,2.11-2.11V94l-12.87,31.13h-1.41L164.43,94v29.49h4v1.17h-9.12Z"/><path class="cls-2" d="M71.27,91v1.48c6.31,0,11.93,5.31,11.93,15.84s-5.62,15.84-11.93,15.84v1.48c9.36,0,16.85-7.49,16.85-17.32S80.63,91,71.27,91Z"/><path class="cls-2" d="M91.43,49.51a2.1,2.1,0,0,0-2.1-2.11H87.45V46.23H99.62V47.4H95.88V66.52c0,8.28,4,12.26,9.36,12.26,5.62,0,9.6-4,9.6-11.51V47.4h-4V46.23h9.36V47.4h-1.17c-2.16,0-3,.94-3,3.32V66.8C116,75.5,111.56,80,104.54,80c-7.73,0-13.11-5.38-13.11-13.15Z"/><path class="cls-2" d="M131,77.83h1.87A2.1,2.1,0,0,0,135,75.72V49.51a2.1,2.1,0,0,0-2.11-2.11h-3.51c-3.27,0-4.72,1.41-5.38,5.85l-.23,1.64h-.94V46.23h28.79v8.66h-.94l-.23-1.64c-.66-4.44-2.11-5.85-5.39-5.85h-5.61V77.83h3.74V79H131Z"/><path class="cls-2" d="M163.32,77.83h1.87a2.1,2.1,0,0,0,2.11-2.11V66.36l-9.13-16.85a3.61,3.61,0,0,0-3.51-2.11h-1.41V46.23H165V47.4h-3.05L171,64.25l8.89-16.85h-3.27V46.23h8.66V47.4h-1.64c-1.64,0-2.53.47-3.51,2.34l-8.43,15.92V77.83h3.75V79H163.32Z"/><path class="cls-2" d="M88.58,77.83c-2.1,0-2.76-.85-3.51-2.81L73.84,45.53H71.27v5.38L77.5,68H71.27v1.48h6.82l3.24,8.37H78.05V79h11.7V77.83Z"/></g></g></svg>